<svg width="18" height="20" viewBox="0 0 18 20" fill="none" xmlns="http://www.w3.org/2000/svg">
<path d="M15.75 8.84625V3.5C15.75 3.03587 15.5656 2.59075 15.2374 2.26256C14.9092 1.93437 14.4641 1.75 14 1.75H10.3425C9.975 0.735 9.0125 0 7.875 0C6.7375 0 5.775 0.735 5.4075 1.75H1.75C0.7875 1.75 0 2.5375 0 3.5V15.75C0 16.2141 0.184374 16.6592 0.512563 16.9874C0.840752 17.3156 1.28587 17.5 1.75 17.5H7.09625C8.19875 18.585 9.70375 19.25 11.375 19.25C14.7612 19.25 17.5 16.5112 17.5 13.125C17.5 11.4537 16.835 9.94875 15.75 8.84625ZM7.875 1.75C8.35625 1.75 8.75 2.14375 8.75 2.625C8.75 3.10625 8.35625 3.5 7.875 3.5C7.39375 3.5 7 3.10625 7 2.625C7 2.14375 7.39375 1.75 7.875 1.75ZM1.75 15.75V3.5H3.5V5.25H12.25V3.5H14V7.595C13.2037 7.21875 12.32 7 11.375 7H3.5V8.75H7.0875C6.5625 9.24875 6.16 9.84375 5.845 10.5H3.5V12.25H5.32C5.27625 12.5387 5.25 12.8275 5.25 13.125C5.25 14.07 5.46875 14.9537 5.845 15.75H1.75ZM11.375 17.5C8.96 17.5 7 15.54 7 13.125C7 10.71 8.96 8.75 11.375 8.75C13.79 8.75 15.75 10.71 15.75 13.125C15.75 15.54 13.79 17.5 11.375 17.5ZM11.8125 13.3438L14.315 14.8225L13.6588 15.89L10.5 14V9.625H11.8125V13.3438Z" fill="white"/>
</svg>
