<svg width="19" height="17" viewBox="0 0 19 17" fill="none" xmlns="http://www.w3.org/2000/svg">
<path d="M8.55 17V15.1111H16.15V8.40555C16.15 6.56389 15.5048 5.00162 14.2144 3.71875C12.924 2.43588 11.3525 1.79444 9.5 1.79444C7.6475 1.79444 6.07604 2.43588 4.78562 3.71875C3.49521 5.00162 2.85 6.56389 2.85 8.40555V14.1667H1.9C1.3775 14.1667 0.930208 13.9817 0.558125 13.6118C0.186042 13.2419 0 12.7972 0 12.2778V10.3889C0 10.0583 0.083125 9.74745 0.249375 9.45625C0.415625 9.16505 0.649167 8.93287 0.95 8.75972L1.02125 7.50833C1.14792 6.43796 1.46063 5.4463 1.95938 4.53333C2.45812 3.62037 3.08354 2.82546 3.83562 2.14861C4.58771 1.47176 5.45062 0.944444 6.42437 0.566667C7.39812 0.188889 8.42333 0 9.5 0C10.5767 0 11.5979 0.188889 12.5638 0.566667C13.5296 0.944444 14.3925 1.46782 15.1525 2.13681C15.9125 2.80579 16.5379 3.59676 17.0287 4.50972C17.5196 5.42269 17.8362 6.41435 17.9787 7.48472L18.05 8.7125C18.3508 8.85417 18.5844 9.06667 18.7506 9.35C18.9169 9.63333 19 9.93241 19 10.2472V12.4194C19 12.7343 18.9169 13.0333 18.7506 13.3167C18.5844 13.6 18.3508 13.8125 18.05 13.9542V15.1111C18.05 15.6306 17.864 16.0752 17.4919 16.4451C17.1198 16.815 16.6725 17 16.15 17H8.55ZM6.65 10.3889C6.38083 10.3889 6.15521 10.2984 5.97312 10.1174C5.79104 9.93634 5.7 9.71204 5.7 9.44444C5.7 9.17685 5.79104 8.95255 5.97312 8.77153C6.15521 8.59051 6.38083 8.5 6.65 8.5C6.91917 8.5 7.14479 8.59051 7.32688 8.77153C7.50896 8.95255 7.6 9.17685 7.6 9.44444C7.6 9.71204 7.50896 9.93634 7.32688 10.1174C7.14479 10.2984 6.91917 10.3889 6.65 10.3889ZM12.35 10.3889C12.0808 10.3889 11.8552 10.2984 11.6731 10.1174C11.491 9.93634 11.4 9.71204 11.4 9.44444C11.4 9.17685 11.491 8.95255 11.6731 8.77153C11.8552 8.59051 12.0808 8.5 12.35 8.5C12.6192 8.5 12.8448 8.59051 13.0269 8.77153C13.209 8.95255 13.3 9.17685 13.3 9.44444C13.3 9.71204 13.209 9.93634 13.0269 10.1174C12.8448 10.2984 12.6192 10.3889 12.35 10.3889ZM3.82375 8.925C3.71292 7.25648 4.21958 5.82407 5.34375 4.62778C6.46792 3.43148 7.86917 2.83333 9.5475 2.83333C10.9567 2.83333 12.1956 3.27801 13.2644 4.16736C14.3331 5.05671 14.9783 6.19398 15.2 7.57917C13.7592 7.56343 12.4331 7.17778 11.2219 6.42222C10.0106 5.66667 9.08042 4.64352 8.43125 3.35278C8.17792 4.61204 7.64354 5.73356 6.82812 6.71736C6.01271 7.70116 5.01125 8.43704 3.82375 8.925Z" fill="white"/>
</svg>
